<?xml version="1.0" standalone="no"?>
<!DOCTYPE svg PUBLIC "-//W3C//DTD SVG 20010904//EN"
 "http://www.w3.org/TR/2001/REC-SVG-20010904/DTD/svg10.dtd">
<svg version="1.0" xmlns="http://www.w3.org/2000/svg"
 width="512.000000pt" height="512.000000pt" viewBox="0 0 512.000000 512.000000"
 preserveAspectRatio="xMidYMid meet">
<metadata>
Created by potrace 1.14, written by Peter Selinger 2001-2017
</metadata>
<g transform="translate(0.000000,512.000000) scale(0.100000,-0.100000)"
fill="#000000" stroke="none">
<path d="M0 2560 l0 -2560 2560 0 2560 0 0 2560 0 2560 -2560 0 -2560 0 0
-2560z m3160 1459 c740 -160 1348 -294 1352 -298 3 -3 -15 -162 -40 -353 l-46
-347 -26 -5 c-14 -3 -392 -8 -840 -12 -448 -4 -940 -10 -1093 -13 l-277 -6
327 -300 c479 -439 1102 -1005 1231 -1118 62 -54 112 -100 112 -102 0 -4
-1158 -895 -1163 -895 -2 0 -217 557 -478 1239 l-474 1238 -3 -1044 -2 -1043
-38 5 c-35 5 -1078 95 -1101 95 -6 0 -11 5 -11 10 0 8 1130 3116 1176 3233 4
13 14 17 28 13 11 -2 626 -136 1366 -297z"/>
<path d="M2845 3810 c-301 -31 -534 -122 -591 -231 -96 -187 259 -363 776
-385 484 -21 911 135 876 320 -23 120 -250 233 -561 281 -126 19 -382 27 -500
15z"/>
</g>
</svg>
